<svg xmlns="http://www.w3.org/2000/svg" xmlns:xlink="http://www.w3.org/1999/xlink" width="767" height="395" fill="#000" fill-opacity="1" stroke="#000" stroke-dasharray="none" stroke-dashoffset="0" stroke-linecap="square" stroke-linejoin="miter" stroke-miterlimit="10" stroke-opacity="1" stroke-width="1" color-interpolation="auto" color-rendering="auto" font-family="'Dialog'" font-size="12" font-style="normal" font-weight="normal" image-rendering="auto" shape-rendering="auto" text-rendering="auto"><g><defs id="defs1"><clipPath id="clipPath1" clipPathUnits="userSpaceOnUse"><path d="M0 0 L767 0 L767 395 L0 395 L0 0 Z"/></clipPath><clipPath id="clipPath2" clipPathUnits="userSpaceOnUse"><path d="M9 31 L776 31 L776 426 L9 426 L9 31 Z"/></clipPath></defs><g fill="#FC0" stroke="#FC0" shape-rendering="geometricPrecision" text-rendering="geometricPrecision" transform="matrix(1,0,0,1,-9,-31)"><circle cx="405.5" cy="228.5" r="182.5" stroke="none" clip-path="url(#clipPath2)"/></g><g stroke-linecap="butt" stroke-miterlimit="1.45" shape-rendering="geometricPrecision" text-rendering="geometricPrecision" transform="matrix(1,0,0,1,-9,-31)"><circle cx="405.5" cy="228.5" r="182.5" fill="none" clip-path="url(#clipPath2)"/></g><g fill="#CFF" stroke="#CFF" shape-rendering="geometricPrecision" text-rendering="geometricPrecision" transform="matrix(1,0,0,1,-9,-31)"><circle cx="405.5" cy="228.5" r="132" stroke="none" clip-path="url(#clipPath2)"/></g><g stroke-linecap="butt" stroke-miterlimit="1.45" shape-rendering="geometricPrecision" text-rendering="geometricPrecision" transform="matrix(1,0,0,1,-9,-31)"><circle cx="405.5" cy="228.5" r="132" fill="none" clip-path="url(#clipPath2)"/></g><g fill="#C9F" stroke="#C9F" shape-rendering="geometricPrecision" text-rendering="geometricPrecision" transform="matrix(1,0,0,1,-9,-31)"><circle cx="405.5" cy="228.5" r="88.5" stroke="none" clip-path="url(#clipPath2)"/></g><g stroke-linecap="butt" stroke-miterlimit="1.45" shape-rendering="geometricPrecision" text-rendering="geometricPrecision" transform="matrix(1,0,0,1,-9,-31)"><circle cx="405.5" cy="228.5" r="88.5" fill="none" clip-path="url(#clipPath2)"/></g><g fill="#9C0" stroke="#9C0" shape-rendering="geometricPrecision" text-rendering="geometricPrecision" transform="matrix(1,0,0,1,-9,-31)"><circle cx="405.5" cy="228.5" r="42.5" stroke="none" clip-path="url(#clipPath2)"/></g><g stroke-linecap="butt" stroke-miterlimit="1.45" shape-rendering="geometricPrecision" text-rendering="geometricPrecision" transform="matrix(1,0,0,1,-9,-31)"><circle cx="405.5" cy="228.5" r="42.5" fill="none" clip-path="url(#clipPath2)"/><text x="388.824" y="233.214" stroke="none" clip-path="url(#clipPath2)" font-family="sans-serif" xml:space="preserve">Action</text><text x="33.254" y="236.356" stroke="none" clip-path="url(#clipPath2)" font-family="sans-serif" font-size="20" xml:space="preserve">Request</text><text x="668.471" y="230.356" stroke="none" clip-path="url(#clipPath2)" font-family="sans-serif" font-size="20" xml:space="preserve">Response</text></g><g stroke-linecap="butt" stroke-miterlimit="1.45" shape-rendering="geometricPrecision" text-rendering="geometricPrecision"><path fill="none" d="M208 222.25 L210.85 227 L117 227 L117 230 L210.85 230 L208 234.75 L223 228.5 L208 222.25 Z" clip-path="url(#clipPath2)" transform="matrix(1,0,0,1,-9,-31)"/></g><g stroke-linecap="butt" stroke-miterlimit="1.45" shape-rendering="geometricPrecision" text-rendering="geometricPrecision"><path fill="none" d="M651.8811 217.4492 L654.8231 222.1428 L654.8231 222.1428 L587.9362 223.4458 L587.9946 226.4452 L654.8815 225.1422 L654.8815 225.1422 L652.1246 229.9468 L667 223.4058 L651.8811 217.4492 Z" clip-path="url(#clipPath2)" transform="matrix(1,0,0,1,-9,-31)"/></g></g></svg>