<svg xmlns="http://www.w3.org/2000/svg" xmlns:xlink="http://www.w3.org/1999/xlink" width="694" height="437" fill="#000" fill-opacity="1" stroke="#000" stroke-dasharray="none" stroke-dashoffset="0" stroke-linecap="square" stroke-linejoin="miter" stroke-miterlimit="10" stroke-opacity="1" stroke-width="1" color-interpolation="auto" color-rendering="auto" font-family="'Dialog'" font-size="12" font-style="normal" font-weight="normal" image-rendering="auto" shape-rendering="auto" text-rendering="auto"><g><defs id="defs1"><clipPath id="clipPath1" clipPathUnits="userSpaceOnUse"><path d="M0 0 L694 0 L694 437 L0 437 L0 0 Z"/></clipPath><clipPath id="clipPath2" clipPathUnits="userSpaceOnUse"><path d="M870 98 L1564 98 L1564 535 L870 535 L870 98 Z"/></clipPath><clipPath id="clipPath3" clipPathUnits="userSpaceOnUse"><path d="M-328.7697 -15.8 L365.9007 -15.8 L365.9007 421.2 L-328.7697 421.2 L-328.7697 -15.8 Z"/></clipPath></defs><g shape-rendering="geometricPrecision" text-rendering="geometricPrecision"><g clip-path="url(#clipPath3)" transform="matrix(0.999,0,0,1,328.4524,15.8)"><svg id="svg1.Ebene_1" width="59" height="59" x="0" y="0" fill="#000" fill-opacity="1" fill-rule="nonzero" stroke="none" stroke-dasharray="none" stroke-dashoffset="0" stroke-linecap="butt" stroke-linejoin="miter" stroke-miterlimit="4" stroke-opacity="1" stroke-width="1" marker-end="none" marker-mid="none" marker-start="none" alignment-baseline="auto" baseline-shift="baseline" clip="auto" clip-path="none" clip-rule="nonzero" color="#000" color-interpolation="srgb" color-interpolation-filters="linearrgb" color-profile="auto" color-rendering="auto" cursor="auto" direction="ltr" display="inline" dominant-baseline="auto" enable-background="new 0 0 59 59" filter="none" flood-color="#000" flood-opacity="1" font-family="&quot;Arial&quot;,&quot;Helvetica&quot;,sans-serif" font-size="12" font-size-adjust="none" font-stretch="normal" font-style="normal" font-variant="normal" font-weight="400" glyph-orientation-horizontal="0deg" glyph-orientation-vertical="auto" image-rendering="auto" kerning="auto" letter-spacing="normal" lighting-color="#FFF" mask="none" opacity="1" overflow="hidden" pointer-events="visiblepainted" shape-rendering="auto" src="none" stop-color="#000" stop-opacity="1" text-anchor="start" text-decoration="none" text-rendering="auto" unicode-bidi="normal" version="1.1" viewBox="0 0 59 59" visibility="visible" word-spacing="normal" writing-mode="lr-tb" xml:space="preserve"><g><linearGradient id="svg1.neck_x5F_white_1_" x1="13.632" x2="14.362" y1="-1502.742" y2="-1520.256" gradientTransform="matrix(1 0 0 -1 0.2002 -1487.2285)" gradientUnits="userSpaceOnUse"><stop offset=".271" style="stop-color:#ffab4f"/><stop offset="1" style="stop-color:#ffd28f"/></linearGradient><path id="svg1.neck_x5F_white_19_" fill="url(#svg1.neck_x5F_white_1_)" stroke="#FFAB4F" stroke-miterlimit="10" stroke-width=".5" d="M9.639,18.899h9.093v10.115c-0.656,0.186-8.586,0.218-9.093,0.086V18.899z"/><linearGradient id="svg1.SVGID_1_" x1="13.129" x2="13.75" y1="-1499.207" y2="-1514.107" gradientTransform="matrix(1 0 0 -1 0.2002 -1487.2285)" gradientUnits="userSpaceOnUse"><stop offset=".271" style="stop-color:#ffab4f"/><stop offset="1" style="stop-color:#ffd28f"/></linearGradient><path fill="url(#svg1.SVGID_1_)" stroke="#ED9135" stroke-miterlimit="10" stroke-width=".5" d="M24.766,25.612 c-2.199-2.197-5.477-2.941-6.033-3.055v-3.658H9.639c0,0,0.019,3.452,0,3.435c0,0-3.437,0.499-6.154,3.216 c-2.796,2.796-3.235,5.835-3.235,5.835c0,0.971,0.788,1.746,1.762,1.746h24.255c0.974,0,1.761-0.777,1.761-1.746 C28.027,31.384,27.105,27.953,24.766,25.612z"/><radialGradient id="svg1.face_x5F_white_1_" cx="13.752" cy="-1500.091" r="11.712" fx="11.467" fy="-1501.336" gradientTransform="matrix(1 0 0 -1 0.2002 -1487.2285)" gradientUnits="userSpaceOnUse"><stop offset="0" style="stop-color:#ffd28f"/><stop offset="1" style="stop-color:#ffab4f"/></radialGradient><path id="svg1.face_x5F_white_19_" fill="url(#svg1.face_x5F_white_1_)" stroke="#ED9135" stroke-miterlimit="10" stroke-width=".5" d="M21.838,11.679c0.043,5.1-3.369,9.26-7.623,9.293C9.964,21.006,6.483,16.899,6.44,11.8c-0.042-5.1,3.37-9.261,7.622-9.294 C18.314,2.473,21.795,6.579,21.838,11.679z"/><linearGradient id="svg1.face_highlight_1_" x1="4300.039" x2="4311.855" y1="8522.07" y2="8568.799" gradientTransform="matrix(0.275 0 0 0.2733 -1169.7629 -2324.9595)" gradientUnits="userSpaceOnUse"><stop offset="0" style="stop-color:#fff;stop-opacity:.24"/><stop offset="1" style="stop-color:#fff;stop-opacity:.16"/></linearGradient><path id="svg1.face_highlight_19_" fill="url(#svg1.face_highlight_1_)" d="M13.979,3.166c-3.018,0.023-5.374,2.247-6.394,5.193 c-0.332,0.96-0.147,2.021,0.49,2.814c1.365,1.699,2.865,3.142,4.73,4.044c1.569,0.759,3.767,1.192,5.946,0.624 c1.139-0.297,1.994-1.229,2.188-2.383c0.092-0.548,0.146-1.145,0.143-1.777C21.041,6.977,18.137,3.134,13.979,3.166z"/><path id="svg1.Hair_Female_1_Black_9_" fill="#4B4B4B" stroke="#000" stroke-linecap="round" stroke-linejoin="round" stroke-width=".5" d="M14.187,0.25c-5.418,0-10.052,3.624-9.61,12.813c0.282,3.281,2.931,6.021,4.683,6.766C7.795,14.344,9.107,7.317,8.967,7.064 c-0.14-0.252,1.769,3.364,1.769,3.364l1.591-4.155c2.771,2.14,0.197,5.654,0.524,5.528c2.129-0.815,2.67-4.614,2.67-4.614 s1.364,1.829,1.35,2.752c-0.025,1.781,1.098-3.033,1.098-3.033l0.514,1.016c3.363,4.911,1.842,8.104,0.826,11.391 c7.834-0.352,6.146-5.24,4.83-9.203C21.795,3.046,19.604,0.25,14.187,0.25z"/><linearGradient id="svg1.body_1_" x1="53.485" x2="21.29" y1="2393.729" y2="2393.729" gradientTransform="matrix(0.9852 0 0 0.9852 -22.6981 -2330.2188)" gradientUnits="userSpaceOnUse"><stop offset="0" style="stop-color:#49ad33"/><stop offset="1" style="stop-color:#c2da92"/></linearGradient><path id="svg1.body_63_" fill="url(#svg1.body_1_)" stroke="#008D33" stroke-width=".5" d="M0.25,31.384c0,0.97,0.788,1.747,1.762,1.747 h24.255c0.974,0,1.761-0.779,1.761-1.747c0,0-0.922-3.431-3.262-5.771c-2.408-2.406-4.123-2.572-4.123-2.572 c-0.723,3.491-4.277,4.393-6.503,4.393c-2.227,0-5.75-0.994-6.06-4.393c0,0-1.877-0.207-4.594,2.51 C0.689,28.345,0.25,31.384,0.25,31.384z"/><linearGradient id="svg1.neck_x5F_white_3_" x1="43.852" x2="44.582" y1="-1502.742" y2="-1520.255" gradientTransform="matrix(1 0 0 -1 0.2002 -1487.2285)" gradientUnits="userSpaceOnUse"><stop offset=".271" style="stop-color:#ffab4f"/><stop offset="1" style="stop-color:#ffd28f"/></linearGradient><path id="svg1.neck_x5F_white_17_" fill="url(#svg1.neck_x5F_white_3_)" stroke="#FFAB4F" stroke-miterlimit="10" stroke-width=".5" d="M39.859,18.899h9.094v10.115c-0.656,0.186-8.586,0.218-9.094,0.086V18.899z"/><linearGradient id="svg1.SVGID_2_" x1="43.351" x2="43.971" y1="-1499.207" y2="-1514.108" gradientTransform="matrix(1 0 0 -1 0.2002 -1487.2285)" gradientUnits="userSpaceOnUse"><stop offset=".271" style="stop-color:#ffab4f"/><stop offset="1" style="stop-color:#ffd28f"/></linearGradient><path fill="url(#svg1.SVGID_2_)" stroke="#ED9135" stroke-miterlimit="10" stroke-width=".5" d="M54.986,25.612 c-2.199-2.197-5.478-2.941-6.033-3.055v-3.658h-9.094c0,0,0.02,3.452,0,3.435c0,0-3.438,0.499-6.153,3.216 c-2.796,2.796-3.235,5.835-3.235,5.835c0,0.971,0.787,1.746,1.762,1.746h24.256c0.974,0,1.761-0.777,1.761-1.746 C58.248,31.384,57.326,27.953,54.986,25.612z"/><radialGradient id="svg1.face_x5F_white_3_" cx="43.973" cy="-1500.091" r="11.711" fx="41.688" fy="-1501.336" gradientTransform="matrix(1 0 0 -1 0.2002 -1487.2285)" gradientUnits="userSpaceOnUse"><stop offset="0" style="stop-color:#ffd28f"/><stop offset="1" style="stop-color:#ffab4f"/></radialGradient><path id="svg1.face_x5F_white_17_" fill="url(#svg1.face_x5F_white_3_)" stroke="#ED9135" stroke-miterlimit="10" stroke-width=".5" d="M52.059,11.679c0.043,5.1-3.369,9.26-7.623,9.293c-4.25,0.034-7.731-4.073-7.774-9.172c-0.042-5.1,3.368-9.261,7.622-9.294 C48.536,2.473,52.016,6.579,52.059,11.679z"/><linearGradient id="svg1.face_highlight_3_" x1="4409.933" x2="4421.748" y1="8522.07" y2="8568.797" gradientTransform="matrix(0.275 0 0 0.2733 -1169.7629 -2324.9595)" gradientUnits="userSpaceOnUse"><stop offset="0" style="stop-color:#fff;stop-opacity:.24"/><stop offset="1" style="stop-color:#fff;stop-opacity:.16"/></linearGradient><path id="svg1.face_highlight_17_" fill="url(#svg1.face_highlight_3_)" d="M44.2,3.166c-3.019,0.023-5.374,2.247-6.394,5.193 c-0.332,0.96-0.147,2.021,0.489,2.814c1.364,1.699,2.864,3.142,4.729,4.044c1.568,0.759,3.768,1.192,5.945,0.624 c1.139-0.297,1.994-1.229,2.188-2.383c0.092-0.548,0.146-1.145,0.143-1.777C51.262,6.977,48.357,3.134,44.2,3.166z"/><path id="svg1.hair_x5F_gray_17_" fill="#ECECEC" stroke="#9B9B9B" stroke-linecap="round" stroke-linejoin="round" stroke-width=".5" d="M40.359,6.625c0,0,2.66,3.625,7.5,1.875c1.365-0.281,4.529,0.518,4.529,0.518s-1.828-8.085-8.523-7.646 c-8.943,0.69-7.615,11.467-7.615,11.467s1.384-0.342,2.518-2.401C39.255,9.553,40.359,6.625,40.359,6.625z"/><radialGradient id="svg1.collar_x5F_body_2_" cx="37.66" cy="-1515.813" r="16.2" gradientTransform="matrix(1 0 0 -1 0.2002 -1487.2285)" gradientUnits="userSpaceOnUse"><stop offset="0" style="stop-color:#b0e8ff"/><stop offset="1" style="stop-color:#74aeee"/></radialGradient><path id="svg1.collar_x5F_body_8_" fill="url(#svg1.collar_x5F_body_2_)" stroke="#5491CF" stroke-width=".5" d="M30.471,31.384 c0,0.97,0.787,1.747,1.762,1.747h24.256c0.974,0,1.761-0.779,1.761-1.747c0,0-0.922-3.431-3.263-5.771 c-2.407-2.406-5.623-3.072-5.623-3.072c-0.885,0.827-2.805,1.4-5.03,1.4s-4.146-0.573-5.031-1.4c0,0-2.878,0.293-5.595,3.01 C30.91,28.345,30.471,31.384,30.471,31.384z"/><radialGradient id="svg1.collar_x5F_r_2_" cx="45.831" cy="-1510.874" r="4.64" gradientTransform="matrix(1 0 0 -1 0.2002 -1487.2285)" gradientUnits="userSpaceOnUse"><stop offset="0" style="stop-color:#80ccff"/><stop offset="1" style="stop-color:#74aeee"/></radialGradient><path id="svg1.collar_x5F_r_8_" fill="url(#svg1.collar_x5F_r_2_)" stroke="#5491CF" stroke-width=".5" d="M49.301,20.69 c0,0-0.287,1.185-1.506,2.221c-1.055,0.897-2.893,1.036-2.893,1.036l1.986,3.108c0,0,1.479-0.818,2.504-1.924 c0.961-1.036,0.686-2.74,0.686-2.74L49.301,20.69z"/><radialGradient id="svg1.collar_x5F_l_2_" cx="39.649" cy="-1510.896" r="4.643" gradientTransform="matrix(1 0 0 -1 0.2002 -1487.2285)" gradientUnits="userSpaceOnUse"><stop offset="0" style="stop-color:#80ccff"/><stop offset="1" style="stop-color:#74aeee"/></radialGradient><path id="svg1.collar_x5F_l_8_" fill="url(#svg1.collar_x5F_l_2_)" stroke="#5491CF" stroke-width=".5" d="M39.536,20.711 c0,0,0.288,1.185,1.506,2.221c1.056,0.896,2.894,1.036,2.894,1.036l-1.987,3.108c0,0-1.479-0.818-2.505-1.925 c-0.961-1.036-0.685-2.74-0.685-2.74L39.536,20.711z"/><radialGradient id="svg1.Knob2_2_" cx="44.065" cy="-742.642" r=".485" gradientTransform="matrix(1 0 0 -1 0.1201 -714.5371)" gradientUnits="userSpaceOnUse"><stop offset="0" style="stop-color:#80ccff"/><stop offset="1" style="stop-color:#74aeee"/></radialGradient><circle id="svg1.Knob2_8_" cx="44.35" cy="28.127" r=".292" fill="url(#svg1.Knob2_2_)" stroke="#5491CF" stroke-width=".5"/><radialGradient id="svg1.Knob1_2_" cx="44.083" cy="-745.764" r=".485" gradientTransform="matrix(1 0 0 -1 0.1201 -714.5371)" gradientUnits="userSpaceOnUse"><stop offset="0" style="stop-color:#80ccff"/><stop offset="1" style="stop-color:#74aeee"/></radialGradient><circle id="svg1.Knob1_8_" cx="44.369" cy="31.25" r=".292" fill="url(#svg1.Knob1_2_)" stroke="#5491CF" stroke-width=".5"/><radialGradient id="svg1.jacket_x5F_body_1_" cx="36.784" cy="-1515.376" r="20.459" gradientTransform="matrix(1 0 0 -1 0.2002 -1487.2285)" gradientUnits="userSpaceOnUse"><stop offset="0" style="stop-color:#d0d0d0"/><stop offset="1" style="stop-color:#9b9b9b"/></radialGradient><path id="svg1.jacket_x5F_body_8_" fill="url(#svg1.jacket_x5F_body_1_)" stroke="#4B4B4B" stroke-linecap="round" stroke-linejoin="round" stroke-width=".5" d="M54.986,25.612c-2.217-2.217-5.111-2.955-5.557-3.059l-2.695,10.572h-4.43L39.686,22.84c-0.145-0.096-0.271-0.196-0.385-0.301 c0,0-2.877,0.293-5.595,3.01c-2.796,2.796-3.233,5.835-3.233,5.835c0,0.97,0.786,1.747,1.76,1.747h24.256 c0.975,0,1.761-0.779,1.761-1.747C58.248,31.384,57.326,27.953,54.986,25.612z"/><polygon id="svg1.jacket_x5F_r_8_" fill="#9B9B9B" stroke="#4B4B4B" stroke-linecap="round" stroke-linejoin="round" stroke-width=".5" points="49.688 21.038 51.305 23.187 50.615 27.835 48.914 28.25 49.547 29.563 47.509 33.126 46.734 33.126"/><polygon id="svg1.jacket_x5F_l_8_" fill="#B2B2B2" stroke="#4B4B4B" stroke-linecap="round" stroke-linejoin="round" stroke-width=".5" points="39.354 21.038 37.734 23.187 38.426 27.835 40.127 28.25 39.493 29.563 41.531 33.126 42.307 33.126"/><path id="svg1.path5135_8_" fill="#D54A30" stroke="#B51A19" stroke-width=".5" d="M43.936,27.61c0,0-0.926,1.028-1.041,3.271 c-0.115,2.244,0,2.244,0,2.244h3.273c0,0,0.115,0.031-0.077-2.182c-0.2-2.302-1.194-3.334-1.194-3.334L43.936,27.61L43.936,27.61z"/><path id="svg1.path5131_8_" fill="#D54A30" stroke="#B51A19" stroke-width=".5" d="M44.377,24.34h0.063l1.275,2.001 c0.258,0.477-0.604,0.898-0.729,1.274l-1.139-0.008c-0.121-0.38-1.129-0.683-0.738-1.292L44.377,24.34z"/><linearGradient id="svg1.neck_x5F_white_4_" x1="43.633" x2="44.362" y1="-1527.742" y2="-1545.255" gradientTransform="matrix(1 0 0 -1 0.2002 -1487.2285)" gradientUnits="userSpaceOnUse"><stop offset=".271" style="stop-color:#ffab4f"/><stop offset="1" style="stop-color:#ffd28f"/></linearGradient><path id="svg1.neck_x5F_white_11_" fill="url(#svg1.neck_x5F_white_4_)" stroke="#FFAB4F" stroke-miterlimit="10" stroke-width=".5" d="M39.639,43.898h9.094v10.115c-0.655,0.187-8.586,0.219-9.094,0.086V43.898z"/><linearGradient id="svg1.SVGID_3_" x1="43.131" x2="43.752" y1="-1524.207" y2="-1539.107" gradientTransform="matrix(1 0 0 -1 0.2002 -1487.2285)" gradientUnits="userSpaceOnUse"><stop offset=".271" style="stop-color:#ffab4f"/><stop offset="1" style="stop-color:#ffd28f"/></linearGradient><path fill="url(#svg1.SVGID_3_)" stroke="#ED9135" stroke-miterlimit="10" stroke-width=".5" d="M54.766,50.611 c-2.199-2.196-5.477-2.94-6.033-3.055v-3.658h-9.094c0,0,0.021,3.453,0,3.436c0,0-3.437,0.499-6.152,3.216 c-2.797,2.796-3.235,5.835-3.235,5.835c0,0.971,0.787,1.746,1.763,1.746h24.254c0.975,0,1.762-0.777,1.762-1.746 C58.027,56.384,57.105,52.953,54.766,50.611z"/><radialGradient id="svg1.face_x5F_white_4_" cx="43.752" cy="-1525.091" r="11.711" fx="41.467" fy="-1526.336" gradientTransform="matrix(1 0 0 -1 0.2002 -1487.2285)" gradientUnits="userSpaceOnUse"><stop offset="0" style="stop-color:#ffd28f"/><stop offset="1" style="stop-color:#ffab4f"/></radialGradient><path id="svg1.face_x5F_white_11_" fill="url(#svg1.face_x5F_white_4_)" stroke="#ED9135" stroke-miterlimit="10" stroke-width=".5" d="M51.838,36.68c0.043,5.1-3.369,9.26-7.623,9.293c-4.251,0.033-7.732-4.074-7.775-9.173c-0.041-5.1,3.369-9.261,7.623-9.294 C48.314,27.473,51.795,31.579,51.838,36.68z"/><linearGradient id="svg1.face_highlight_4_" x1="4409.13" x2="4420.945" y1="8613.547" y2="8660.272" gradientTransform="matrix(0.275 0 0 0.2733 -1169.7629 -2324.9595)" gradientUnits="userSpaceOnUse"><stop offset="0" style="stop-color:#fff;stop-opacity:.24"/><stop offset="1" style="stop-color:#fff;stop-opacity:.16"/></linearGradient><path id="svg1.face_highlight_11_" fill="url(#svg1.face_highlight_4_)" d="M43.979,28.166c-3.018,0.023-5.373,2.247-6.394,5.193 c-0.332,0.959-0.147,2.021,0.49,2.813c1.364,1.699,2.864,3.142,4.729,4.044c1.568,0.76,3.768,1.192,5.945,0.624 c1.139-0.297,1.994-1.229,2.188-2.383c0.092-0.548,0.146-1.146,0.144-1.776C51.041,31.977,48.137,28.134,43.979,28.166z"/><path fill="#CC9869" stroke="#99724F" stroke-linecap="round" stroke-linejoin="round" stroke-width=".5" d="M46.107,29.969 c0,0,2.845,1.375,3.845,4.062c1.052,2.826,2.062,4.117,2.095,4c0.938-3.395,0.531-10.718-5.086-10.792 c-10.229-3.832-12.79,5.98-11.947,9.824c0.539,2.457,1.117,3.344,1.971,4.041C36.982,41.104,37.514,33.781,46.107,29.969z"/><linearGradient id="svg1.body_2_" x1="83.936" x2="51.74" y1="2419.106" y2="2419.106" gradientTransform="matrix(0.9852 0 0 0.9852 -22.6981 -2330.2188)" gradientUnits="userSpaceOnUse"><stop offset="0" style="stop-color:#49ad33"/><stop offset="1" style="stop-color:#c2da92"/></linearGradient><path id="svg1.body_35_" fill="url(#svg1.body_2_)" stroke="#008D33" stroke-width=".5" d="M30.25,56.384c0,0.97,0.787,1.747,1.762,1.747 h24.256c0.974,0,1.76-0.779,1.76-1.747c0,0-0.922-3.431-3.262-5.771c-2.408-2.406-4.123-2.572-4.123-2.572 c-0.723,3.49-4.276,4.393-6.504,4.393c-2.227,0-5.75-0.994-6.059-4.393c0,0-1.878-0.207-4.596,2.51 C30.689,53.346,30.25,56.384,30.25,56.384z"/><radialGradient id="svg1.neck_x5F_white_5_" cx="14.095" cy="-1534.93" r="5.724" fx="12.979" fy="-1535.539" gradientTransform="matrix(1 0 0 -1 0.2002 -1487.2285)" gradientUnits="userSpaceOnUse"><stop offset="0" style="stop-color:#b38e5d"/><stop offset="1" style="stop-color:#805126"/></radialGradient><path id="svg1.neck_x5F_white_2_" fill="url(#svg1.neck_x5F_white_5_)" stroke="#5B453B" stroke-miterlimit="10" stroke-width=".5" d="M9.859,43.898h9.094v6.615c-0.656,0.187-8.586,0.219-9.094,0.086V43.898z"/><radialGradient id="svg1.SVGID_4_" cx="13.821" cy="-1539.108" r="15.527" fx="10.792" fy="-1540.759" gradientTransform="matrix(1 0 0 -1 0.2002 -1487.2285)" gradientUnits="userSpaceOnUse"><stop offset="0" style="stop-color:#b38e5d"/><stop offset="1" style="stop-color:#805126"/></radialGradient><path fill="url(#svg1.SVGID_4_)" stroke="#5B453B" stroke-miterlimit="10" stroke-width=".5" d="M24.986,50.611 c-2.199-2.196-5.477-2.94-6.033-3.055v-3.658H9.859c0,0,0.02,3.453,0,3.436c0,0-3.437,0.499-6.153,3.216 c-2.796,2.796-3.235,5.835-3.235,5.835c0,0.971,0.787,1.746,1.762,1.746h24.255c0.974,0,1.761-0.777,1.761-1.746 C28.248,56.384,27.326,52.953,24.986,50.611z"/><radialGradient id="svg1.face_x5F_white_5_" cx="13.972" cy="-1525.091" r="11.712" fx="11.687" fy="-1526.336" gradientTransform="matrix(1 0 0 -1 0.2002 -1487.2285)" gradientUnits="userSpaceOnUse"><stop offset="0" style="stop-color:#b38e5d"/><stop offset="1" style="stop-color:#805126"/></radialGradient><path id="svg1.face_x5F_white_2_" fill="url(#svg1.face_x5F_white_5_)" stroke="#5B453B" stroke-miterlimit="10" stroke-width=".5" d="M22.059,36.68c0.043,5.1-3.369,9.26-7.623,9.293c-4.251,0.033-7.732-4.074-7.775-9.173c-0.042-5.1,3.369-9.261,7.622-9.294 C18.536,27.473,22.016,31.579,22.059,36.68z"/><linearGradient id="svg1.face_highlight_5_" x1="4300.843" x2="4312.658" y1="8613.545" y2="8660.273" gradientTransform="matrix(0.275 0 0 0.2733 -1169.7629 -2324.9595)" gradientUnits="userSpaceOnUse"><stop offset="0" style="stop-color:#fff;stop-opacity:.42"/><stop offset="1" style="stop-color:#fff;stop-opacity:.12"/></linearGradient><path id="svg1.face_highlight_2_" fill="url(#svg1.face_highlight_5_)" d="M14.2,28.166c-3.018,0.023-5.374,2.247-6.394,5.193 c-0.332,0.959-0.147,2.021,0.49,2.813c1.364,1.699,2.864,3.142,4.73,4.044c1.568,0.76,3.767,1.192,5.945,0.624 c1.139-0.297,1.994-1.229,2.188-2.383c0.092-0.548,0.146-1.146,0.143-1.776C21.262,31.977,18.357,28.134,14.2,28.166z"/><path id="svg1.Hair_Young_Black_1_" fill="#4B4B4B" stroke="#000" stroke-linecap="round" stroke-linejoin="round" stroke-width=".5" d="M10.359,31.625c1.709,2.166,4.667,3.459,4.667,3.459l-0.708-1.75c0,0,3.547,2.346,4.041,2.166c0.484-0.1-0.541-1.902-0.541-1.902 s1.568,0.896,2.428,1.983c0.9,1.14,2.143,1.752,2.143,1.752s1.346-10.974-8.523-10.961C4.359,26.354,6.25,38.839,6.25,38.839 L7.568,33.5c0,0,0.457,2.879,0.699,2.438C9.151,32.605,9.651,30.75,10.359,31.625z"/><radialGradient id="svg1.collar_x5F_body_3_" cx="7.66" cy="-1540.813" r="16.2" gradientTransform="matrix(1 0 0 -1 0.2002 -1487.2285)" gradientUnits="userSpaceOnUse"><stop offset="0" style="stop-color:#b0e8ff"/><stop offset="1" style="stop-color:#74aeee"/></radialGradient><path id="svg1.collar_x5F_body_1_" fill="url(#svg1.collar_x5F_body_3_)" stroke="#5491CF" stroke-width=".5" d="M0.471,56.384 c0,0.97,0.787,1.747,1.762,1.747h24.255c0.974,0,1.761-0.779,1.761-1.747c0,0-0.922-3.431-3.262-5.771 c-2.408-2.406-5.623-3.072-5.623-3.072c-0.885,0.827-2.805,1.4-5.031,1.4s-4.146-0.573-5.031-1.4c0,0-2.878,0.293-5.595,3.01 C0.91,53.346,0.471,56.384,0.471,56.384z"/><radialGradient id="svg1.collar_x5F_r_3_" cx="15.831" cy="-1535.874" r="4.641" gradientTransform="matrix(1 0 0 -1 0.2002 -1487.2285)" gradientUnits="userSpaceOnUse"><stop offset="0" style="stop-color:#80ccff"/><stop offset="1" style="stop-color:#74aeee"/></radialGradient><path id="svg1.collar_x5F_r_1_" fill="url(#svg1.collar_x5F_r_3_)" stroke="#5491CF" stroke-width=".5" d="M19.301,45.689 c0,0-0.287,1.186-1.506,2.222c-1.055,0.897-2.893,1.036-2.893,1.036l1.986,3.107c0,0,1.479-0.818,2.504-1.924 c0.961-1.035,0.686-2.74,0.686-2.74L19.301,45.689z"/><radialGradient id="svg1.collar_x5F_l_3_" cx="9.649" cy="-1535.896" r="4.642" gradientTransform="matrix(1 0 0 -1 0.2002 -1487.2285)" gradientUnits="userSpaceOnUse"><stop offset="0" style="stop-color:#80ccff"/><stop offset="1" style="stop-color:#74aeee"/></radialGradient><path id="svg1.collar_x5F_l_1_" fill="url(#svg1.collar_x5F_l_3_)" stroke="#5491CF" stroke-width=".5" d="M9.536,45.711 c0,0,0.288,1.186,1.506,2.221c1.055,0.896,2.893,1.037,2.893,1.037l-1.987,3.107c0,0-1.479-0.818-2.504-1.926 c-0.961-1.035-0.685-2.739-0.685-2.739L9.536,45.711z"/><radialGradient id="svg1.Knob2_3_" cx="14.065" cy="-767.642" r=".484" gradientTransform="matrix(1 0 0 -1 0.1201 -714.5371)" gradientUnits="userSpaceOnUse"><stop offset="0" style="stop-color:#80ccff"/><stop offset="1" style="stop-color:#74aeee"/></radialGradient><circle id="svg1.Knob2_1_" cx="14.35" cy="53.127" r=".292" fill="url(#svg1.Knob2_3_)" stroke="#5491CF" stroke-width=".5"/><radialGradient id="svg1.Knob1_3_" cx="14.084" cy="-770.764" r=".484" gradientTransform="matrix(1 0 0 -1 0.1201 -714.5371)" gradientUnits="userSpaceOnUse"><stop offset="0" style="stop-color:#80ccff"/><stop offset="1" style="stop-color:#74aeee"/></radialGradient><circle id="svg1.Knob1_1_" cx="14.369" cy="56.25" r=".292" fill="url(#svg1.Knob1_3_)" stroke="#5491CF" stroke-width=".5"/><path id="svg1.path5135_1_" fill="#D54A30" stroke="#B51A19" stroke-width=".5" d="M13.935,52.609c0,0-0.925,1.029-1.04,3.271 c-0.115,2.244,0,2.244,0,2.244h3.273c0,0,0.115,0.031-0.077-2.182c-0.2-2.303-1.194-3.334-1.194-3.334H13.935L13.935,52.609z"/><path id="svg1.path5131_1_" fill="#D54A30" stroke="#B51A19" stroke-width=".5" d="M14.377,49.34h0.062l1.276,2.001 c0.258,0.478-0.604,0.897-0.728,1.274l-1.14-0.008c-0.121-0.381-1.128-0.684-0.738-1.293L14.377,49.34z"/></g></svg></g></g><g fill="#FC0" stroke="#FC0" shape-rendering="geometricPrecision" text-rendering="geometricPrecision" transform="matrix(1,0,0,1,-870,-98)"><rect width="90" height="30" x="984.598" y="127.99" stroke="none" clip-path="url(#clipPath2)"/></g><g stroke-linecap="butt" stroke-miterlimit="1.45" shape-rendering="geometricPrecision" text-rendering="geometricPrecision" transform="matrix(1,0,0,1,-870,-98)"><rect width="90" height="30" x="984.598" y="127.99" fill="none" clip-path="url(#clipPath2)"/><text x="1003.577" y="147.704" stroke="none" clip-path="url(#clipPath2)" font-family="sans-serif" xml:space="preserve">index.php</text></g><g fill="#FC0" stroke="#FC0" shape-rendering="geometricPrecision" text-rendering="geometricPrecision" transform="matrix(1,0,0,1,-870,-98)"><rect width="80.97" height="58.381" x="989.113" y="257" stroke="none" clip-path="url(#clipPath2)"/></g><g stroke-linecap="butt" stroke-miterlimit="1.45" shape-rendering="geometricPrecision" text-rendering="geometricPrecision" transform="matrix(1,0,0,1,-870,-98)"><rect width="80.97" height="58.381" x="989.113" y="257" fill="none" clip-path="url(#clipPath2)"/><text x="1007.921" y="276.203" stroke="none" clip-path="url(#clipPath2)" font-family="sans-serif" xml:space="preserve">Initialize</text><text x="995.907" y="290.904" stroke="none" clip-path="url(#clipPath2)" font-family="sans-serif" xml:space="preserve">Dependency</text><text x="1003.582" y="305.606" stroke="none" clip-path="url(#clipPath2)" font-family="sans-serif" xml:space="preserve">Container</text></g><g fill="#FC0" stroke="#FC0" shape-rendering="geometricPrecision" text-rendering="geometricPrecision" transform="matrix(1,0,0,1,-870,-98)"><rect width="58.5" height="30" x="885.948" y="271.19" stroke="none" clip-path="url(#clipPath2)"/></g><g stroke-linecap="butt" stroke-miterlimit="1.45" shape-rendering="geometricPrecision" text-rendering="geometricPrecision" transform="matrix(1,0,0,1,-870,-98)"><rect width="58.5" height="30" x="885.948" y="271.19" fill="none" clip-path="url(#clipPath2)"/><text x="896.187" y="290.904" stroke="none" clip-path="url(#clipPath2)" font-family="sans-serif" xml:space="preserve">configs</text></g><g fill="#FC0" stroke="#FC0" shape-rendering="geometricPrecision" text-rendering="geometricPrecision" transform="matrix(1,0,0,1,-870,-98)"><rect width="90" height="30" x="984.598" y="465.591" stroke="none" clip-path="url(#clipPath2)"/></g><g stroke-linecap="butt" stroke-miterlimit="1.45" shape-rendering="geometricPrecision" text-rendering="geometricPrecision" transform="matrix(1,0,0,1,-870,-98)"><rect width="90" height="30" x="984.598" y="465.591" fill="none" clip-path="url(#clipPath2)"/><text x="1000.246" y="485.304" stroke="none" clip-path="url(#clipPath2)" font-family="sans-serif" xml:space="preserve">Application</text></g><g fill="#FC0" stroke="#FC0" shape-rendering="geometricPrecision" text-rendering="geometricPrecision" transform="matrix(1,0,0,1,-870,-98)"><rect width="103.6" height="30" x="977.798" y="368.791" stroke="none" clip-path="url(#clipPath2)"/></g><g stroke-linecap="butt" stroke-miterlimit="1.45" shape-rendering="geometricPrecision" text-rendering="geometricPrecision" transform="matrix(1,0,0,1,-870,-98)"><rect width="103.6" height="30" x="977.798" y="368.791" fill="none" clip-path="url(#clipPath2)"/><text x="987.247" y="388.504" stroke="none" clip-path="url(#clipPath2)" font-family="sans-serif" xml:space="preserve">RequestFactory</text></g><g fill="#FC0" stroke="#FC0" shape-rendering="geometricPrecision" text-rendering="geometricPrecision" transform="matrix(1,0,0,1,-870,-98)"><rect width="98" height="30" x="1140.633" y="465.591" stroke="none" clip-path="url(#clipPath2)"/></g><g stroke-linecap="butt" stroke-miterlimit="1.45" shape-rendering="geometricPrecision" text-rendering="geometricPrecision" transform="matrix(1,0,0,1,-870,-98)"><rect width="98" height="30" x="1140.633" y="465.591" fill="none" clip-path="url(#clipPath2)"/><text x="1158.954" y="485.304" stroke="none" clip-path="url(#clipPath2)" font-family="sans-serif" xml:space="preserve">Middleware</text></g><g fill="#FC0" stroke="#FC0" shape-rendering="geometricPrecision" text-rendering="geometricPrecision" transform="matrix(1,0,0,1,-870,-98)"><rect width="103.6" height="30" x="1437.433" y="127.99" stroke="none" clip-path="url(#clipPath2)"/></g><g stroke-linecap="butt" stroke-miterlimit="1.45" shape-rendering="geometricPrecision" text-rendering="geometricPrecision" transform="matrix(1,0,0,1,-870,-98)"><rect width="103.6" height="30" x="1437.433" y="127.99" fill="none" clip-path="url(#clipPath2)"/><text x="1458.223" y="147.704" stroke="none" clip-path="url(#clipPath2)" font-family="sans-serif" xml:space="preserve">SapiEmitter</text></g><g fill="#FC0" stroke="#FC0" shape-rendering="geometricPrecision" text-rendering="geometricPrecision" transform="matrix(1,0,0,1,-870,-98)"><rect width="80.97" height="30" x="1290.233" y="465.591" stroke="none" clip-path="url(#clipPath2)"/></g><g stroke-linecap="butt" stroke-miterlimit="1.45" shape-rendering="geometricPrecision" text-rendering="geometricPrecision" transform="matrix(1,0,0,1,-870,-98)"><rect width="80.97" height="30" x="1290.233" y="465.591" fill="none" clip-path="url(#clipPath2)"/><text x="1312.709" y="485.304" stroke="none" clip-path="url(#clipPath2)" font-family="sans-serif" xml:space="preserve">Router</text></g><g fill="#FC0" stroke="#FC0" shape-rendering="geometricPrecision" text-rendering="geometricPrecision" transform="matrix(1,0,0,1,-870,-98)"><rect width="103.6" height="30" x="1437.433" y="465.591" stroke="none" clip-path="url(#clipPath2)"/></g><g stroke-linecap="butt" stroke-miterlimit="1.45" shape-rendering="geometricPrecision" text-rendering="geometricPrecision" transform="matrix(1,0,0,1,-870,-98)"><rect width="103.6" height="30" x="1437.433" y="465.591" fill="none" clip-path="url(#clipPath2)"/><text x="1449.879" y="485.304" stroke="none" clip-path="url(#clipPath2)" font-family="sans-serif" xml:space="preserve">Action Handler</text><path fill="none" d="M1198.4414 142.9905 L1082.5981 142.9905" clip-path="url(#clipPath2)"/><path stroke="none" d="M1074.5981 142.9905 L1086.5981 147.9905 L1083.5981 142.9905 L1086.5981 137.9905 Z" clip-path="url(#clipPath2)"/><path fill="none" d="M1029.5981 157.9905 L1029.5981 249" clip-path="url(#clipPath2)"/><path stroke="none" d="M1029.5981 257 L1034.5981 245 L1029.5981 248 L1024.5981 245 Z" clip-path="url(#clipPath2)"/></g><g stroke-linecap="butt" stroke-miterlimit="1.45" shape-rendering="geometricPrecision" text-rendering="geometricPrecision"><path fill="none" d="M974.1133 279.9405 L976.9633 284.6905 L944.4482 284.6905 L944.4482 287.6905 L976.9633 287.6905 L974.1133 292.4405 L989.1133 286.1905 L974.1133 279.9405 Z" clip-path="url(#clipPath2)" transform="matrix(1,0,0,1,-870,-98)"/></g><g stroke-linecap="butt" stroke-miterlimit="1.45" shape-rendering="geometricPrecision" text-rendering="geometricPrecision"><path fill="none" d="M1029.5981 315.381 L1029.5981 360.7905" clip-path="url(#clipPath2)" transform="matrix(1,0,0,1,-870,-98)"/><path stroke="none" d="M1029.5981 368.7905 L1034.5981 356.7905 L1029.5981 359.7905 L1024.5981 356.7905 Z" clip-path="url(#clipPath2)" transform="matrix(1,0,0,1,-870,-98)"/><path fill="none" d="M1029.5981 398.7905 L1029.5981 457.5905" clip-path="url(#clipPath2)" transform="matrix(1,0,0,1,-870,-98)"/><path stroke="none" d="M1029.5981 465.5905 L1034.5981 453.5905 L1029.5981 456.5905 L1024.5981 453.5905 Z" clip-path="url(#clipPath2)" transform="matrix(1,0,0,1,-870,-98)"/><text x="977.25" y="436.904" stroke="none" clip-path="url(#clipPath2)" font-family="sans-serif" transform="matrix(1,0,0,1,-870,-98)" xml:space="preserve">Request</text><path fill="none" d="M1074.5981 480.5905 L1132.6333 480.5905" clip-path="url(#clipPath2)" transform="matrix(1,0,0,1,-870,-98)"/><path stroke="none" d="M1140.6333 480.5905 L1128.6333 475.5905 L1131.6333 480.5905 L1128.6333 485.5905 Z" clip-path="url(#clipPath2)" transform="matrix(1,0,0,1,-870,-98)"/><text x="1085.268" y="515.304" stroke="none" clip-path="url(#clipPath2)" font-family="sans-serif" transform="matrix(1,0,0,1,-870,-98)" xml:space="preserve">Request</text><path fill="none" d="M1202.9449 465.5905 L1470.6116 163.9741" clip-path="url(#clipPath2)" transform="matrix(1,0,0,1,-870,-98)"/><path stroke="none" d="M1475.9216 157.9905 L1464.2168 163.6471 L1469.9478 164.722 L1471.6963 170.2847 Z" clip-path="url(#clipPath2)" transform="matrix(1,0,0,1,-870,-98)"/><text x="1350.057" y="319.286" stroke="none" clip-path="url(#clipPath2)" font-family="sans-serif" transform="matrix(1,0,0,1,-870,-98)" xml:space="preserve">Response</text><path fill="none" d="M1437.4332 142.9905 L1264.9655 142.9905" clip-path="url(#clipPath2)" transform="matrix(1,0,0,1,-870,-98)"/><path stroke="none" d="M1256.9655 142.9905 L1268.9655 147.9905 L1265.9655 142.9905 L1268.9655 137.9905 Z" clip-path="url(#clipPath2)" transform="matrix(1,0,0,1,-870,-98)"/><path fill="none" d="M1238.6333 480.5905 L1282.2333 480.5905" clip-path="url(#clipPath2)" transform="matrix(1,0,0,1,-870,-98)"/><path stroke="none" d="M1290.2333 480.5905 L1278.2333 475.5905 L1281.2333 480.5905 L1278.2333 485.5905 Z" clip-path="url(#clipPath2)" transform="matrix(1,0,0,1,-870,-98)"/><text x="1242.086" y="515.304" stroke="none" clip-path="url(#clipPath2)" font-family="sans-serif" transform="matrix(1,0,0,1,-870,-98)" xml:space="preserve">Request</text><path fill="none" d="M1337.7612 465.5905 L1478.7902 165.232" clip-path="url(#clipPath2)" transform="matrix(1,0,0,1,-870,-98)"/><path stroke="none" d="M1482.1903 157.9905 L1472.5642 166.7276 L1478.3651 166.1372 L1481.616 170.9778 Z" clip-path="url(#clipPath2)" transform="matrix(1,0,0,1,-870,-98)"/><text x="1416.101" y="316.504" stroke="none" clip-path="url(#clipPath2)" font-family="sans-serif" transform="matrix(1,0,0,1,-870,-98)" xml:space="preserve">Response</text><path fill="none" d="M1371.203 480.5905 L1429.4332 480.5905" clip-path="url(#clipPath2)" transform="matrix(1,0,0,1,-870,-98)"/><path stroke="none" d="M1437.4332 480.5905 L1425.4332 475.5905 L1428.4332 480.5905 L1425.4332 485.5905 Z" clip-path="url(#clipPath2)" transform="matrix(1,0,0,1,-870,-98)"/><text x="1381.97" y="515.304" stroke="none" clip-path="url(#clipPath2)" font-family="sans-serif" transform="matrix(1,0,0,1,-870,-98)" xml:space="preserve">Request</text><path fill="none" d="M1489.2333 465.5905 L1489.2333 165.9905" clip-path="url(#clipPath2)" transform="matrix(1,0,0,1,-870,-98)"/><path stroke="none" d="M1489.2333 157.9905 L1484.2333 169.9905 L1489.2333 166.9905 L1494.2333 169.9905 Z" clip-path="url(#clipPath2)" transform="matrix(1,0,0,1,-870,-98)"/><text x="1492.216" y="316.504" stroke="none" clip-path="url(#clipPath2)" font-family="sans-serif" transform="matrix(1,0,0,1,-870,-98)" xml:space="preserve">Response</text></g></g></svg>